<svg width="24" height="24" viewBox="0 0 24 24">
<defs>
    <style>
      .cls-1 {
        fill-rule: evenodd;
        fill: url(#linear-gradient);
      }
    </style>
    <linearGradient id="linear-gradient" x1="189" y1="2359" x2="165" y2="2335" gradientUnits="userSpaceOnUse">
      <stop offset="0" stop-color="#009fc5"/>
      <stop offset="1" stop-color="#3cecb0"/>
    </linearGradient>
  </defs>
  <path id="Clock_Icon" data-name="Clock Icon" class="cls-1"
        d="M177,2359.99a12,12,0,1,1,12-12A12,12,0,0,1,177,2359.99Zm0-21a9,
        9,0,1,0,9,9A9,9,0,0,0,177,2338.99Zm6,10.5h-6a1.5,1.5,0,0,1-1.5-1.49v-6.03a1.5,
        1.5,0,0,1,3,0v4.52H183A1.5,1.5,0,0,1,183,2349.49Z" transform="translate(-165 -2335)"/>
</svg>
